<svg width="100" height="100" viewBox="0 0 100 100" fill="none" xmlns="http://www.w3.org/2000/svg">
<path d="M67.1814 27.4894C65.8248 25.6272 64.8597 23.4603 64.446 21.096H64.4443C64.3694 20.6738 64.315 20.2534 64.2758 19.8261V18.4048H61.2067C62.0425 22.119 64.2043 25.3191 67.1814 27.4894Z" fill="white"/>
<path d="M40.4263 50.6262C35.7266 50.6262 31.9153 54.4374 31.9153 59.1372C31.9153 62.3663 33.735 65.1408 36.3836 66.5843C35.7266 65.3757 35.3197 64.0123 35.3197 62.5416C35.3197 57.8418 39.1309 54.0306 43.8307 54.0306C44.4146 54.0306 44.9831 54.0902 45.5329 54.2025V42.202C44.9695 42.1544 44.4061 42.1152 43.8307 42.1152C43.2554 42.1152 42.6919 42.1544 42.1285 42.2003V50.7964C41.5787 50.6858 41.0102 50.6262 40.4263 50.6262Z" fill="white"/>
<path d="M76.278 33.459V41.5155C70.5331 41.5155 65.212 39.6924 60.8697 36.5893L60.8748 59.1383L60.851 59.1077C60.851 59.1179 60.8527 59.1281 60.8527 59.1383C60.8527 70.4187 51.7068 79.5646 40.4264 79.5646C35.6534 79.5646 31.2737 77.9152 27.7978 75.1713C31.5375 79.9136 37.3216 82.969 43.8307 82.969C55.1112 82.969 64.2571 73.8231 64.2571 62.5427C64.2571 62.5325 64.2554 62.5223 64.2554 62.512L64.2792 62.5427L64.2758 39.992C68.6181 43.0951 73.9392 44.9182 79.6841 44.9182V36.2233V36.2199V33.8692C78.53 33.8726 77.3929 33.7092 76.278 33.459Z" fill="white"/>
<path d="M60.8527 59.1385C60.8527 59.1283 60.851 59.1181 60.851 59.1079L60.8748 59.1385L60.8714 36.5879C65.2137 39.691 70.5348 41.514 76.2797 41.514V33.4575C74.5996 33.0779 72.9792 32.4532 71.5034 31.5323C69.8114 30.477 68.3526 29.0948 67.1832 27.4879C64.2043 25.3176 62.0443 22.1175 61.2085 18.4033H52.3417V59.1385V60.8407V62.5429C52.3417 67.2427 48.5305 71.0539 43.8308 71.0539C40.6017 71.0539 37.8271 69.2343 36.3837 66.5856C33.7351 65.1422 31.9154 62.3676 31.9154 59.1385C31.9154 54.4388 35.7266 50.6276 40.4264 50.6276C41.0102 50.6276 41.5788 50.6871 42.1286 50.7995V42.2034C31.6465 43.0698 23.4044 51.8361 23.4044 62.5429C23.4044 67.3159 25.0539 71.6956 27.7978 75.1715C31.2737 77.9155 35.6534 79.5649 40.4264 79.5649C51.7068 79.5649 60.8527 70.419 60.8527 59.1385Z" fill="white"/>
<circle cx="50" cy="50" r="49" stroke="white" stroke-width="2"/>
</svg>
