<svg width="260" height="260" viewBox="0 0 260 260" fill="none" xmlns="http://www.w3.org/2000/svg">
<circle cx="130" cy="130" r="130" fill="#1D1212"/>
<path d="M127.68 152.68C127.68 153.363 127.765 154.131 127.936 154.984C128.107 155.752 128.363 156.477 128.704 157.16C129.045 157.843 129.429 158.44 129.856 158.952C130.368 159.464 130.965 159.72 131.648 159.72V161H115.008V159.72C115.691 159.72 116.288 159.464 116.8 158.952C117.312 158.44 117.739 157.843 118.08 157.16C118.507 156.477 118.805 155.752 118.976 154.984C119.147 154.131 119.232 153.363 119.232 152.68V125.032C119.232 123.069 118.933 121.192 118.336 119.4C117.824 117.608 117.013 116.072 115.904 114.792C114.795 113.427 113.429 112.36 111.808 111.592C110.187 110.739 108.352 110.312 106.304 110.312C104 110.312 101.995 110.867 100.288 111.976C98.6667 113 97.3013 114.28 96.192 115.816C95.168 117.352 94.4 118.931 93.888 120.552C93.376 122.088 93.12 123.368 93.12 124.392V152.68C93.12 153.363 93.2053 154.131 93.376 154.984C93.5467 155.752 93.8027 156.477 94.144 157.16C94.5707 157.843 94.9973 158.44 95.424 158.952C95.936 159.464 96.5333 159.72 97.216 159.72V161H80.704V159.72C81.3013 159.72 81.856 159.464 82.368 158.952C82.88 158.44 83.3067 157.843 83.648 157.16C84.0747 156.477 84.3733 155.752 84.544 154.984C84.7147 154.131 84.8 153.363 84.8 152.68V124.264C84.8 122.216 84.416 120.339 83.648 118.632C82.9653 116.84 81.984 115.347 80.704 114.152C79.5093 112.957 78.1013 112.019 76.48 111.336C74.944 110.653 73.3653 110.312 71.744 110.312C69.5253 110.312 67.5627 110.739 65.856 111.592C64.2347 112.445 62.8693 113.512 61.76 114.792C60.736 116.072 59.9253 117.48 59.328 119.016C58.816 120.467 58.56 121.875 58.56 123.24V152.68C58.56 153.363 58.6453 154.131 58.816 154.984C58.9867 155.752 59.2427 156.477 59.584 157.16C60.0107 157.843 60.4373 158.44 60.864 158.952C61.376 159.464 61.9733 159.72 62.656 159.72V161H46.144V159.72C46.7413 159.72 47.296 159.464 47.808 158.952C48.32 158.44 48.7467 157.843 49.088 157.16C49.5147 156.477 49.8133 155.752 49.984 154.984C50.1547 154.131 50.24 153.363 50.24 152.68V118.504C50.24 117.821 50.1973 117.053 50.112 116.2C50.0267 115.347 49.856 114.536 49.6 113.768C49.344 113 48.9173 112.36 48.32 111.848C47.7227 111.336 46.912 111.08 45.888 111.08V109.928L58.56 105.704V112.232C59.84 110.781 61.5893 109.373 63.808 108.008C66.112 106.643 69.0987 105.96 72.768 105.96C75.1573 105.96 77.2907 106.301 79.168 106.984C81.0453 107.667 82.6667 108.563 84.032 109.672C85.4827 110.696 86.72 111.891 87.744 113.256C88.768 114.621 89.6213 115.944 90.304 117.224C90.9867 115.944 91.7973 114.664 92.736 113.384C93.6747 112.019 94.784 110.781 96.064 109.672C97.4293 108.563 99.008 107.667 100.8 106.984C102.677 106.301 104.853 105.96 107.328 105.96C112.107 105.96 115.861 106.813 118.592 108.52C121.323 110.227 123.328 112.275 124.608 114.664C125.973 117.053 126.827 119.571 127.168 122.216C127.509 124.776 127.68 126.952 127.68 128.744V152.68ZM178.552 161V154.472L177.912 155.112C175.779 157.245 173.304 158.909 170.488 160.104C167.757 161.299 164.429 161.896 160.504 161.896C157.517 161.896 154.957 161.555 152.824 160.872C150.691 160.189 148.941 159.251 147.576 158.056C146.211 156.776 145.187 155.325 144.504 153.704C143.907 152.083 143.608 150.376 143.608 148.584C143.608 145.683 144.376 143.123 145.912 140.904C147.533 138.685 149.837 136.723 152.824 135.016C155.811 133.309 159.437 131.773 163.704 130.408C168.056 128.957 173.005 127.549 178.552 126.184C178.381 122.856 177.699 120.168 176.504 118.12C175.309 116.072 173.901 114.493 172.28 113.384C170.659 112.189 168.952 111.421 167.16 111.08C165.368 110.653 163.832 110.44 162.552 110.44C160.333 110.44 158.371 110.781 156.664 111.464C155.043 112.147 153.592 113.043 152.312 114.152C151.117 115.176 150.093 116.328 149.24 117.608C148.387 118.803 147.704 119.955 147.192 121.064H146.04V111.72C146.723 111.635 147.363 111.421 147.96 111.08C148.557 110.739 149.283 110.397 150.136 110.056C151.416 109.544 153.165 108.819 155.384 107.88C157.603 106.856 160.717 106.344 164.728 106.344C169.421 106.344 173.219 106.941 176.12 108.136C179.021 109.331 181.24 110.909 182.776 112.872C184.397 114.835 185.464 117.096 185.976 119.656C186.488 122.131 186.744 124.691 186.744 127.336V152.68C186.744 154.387 187.128 156.008 187.896 157.544C188.664 158.995 189.688 159.72 190.968 159.72V161H178.552ZM178.552 148.84V130.536L177.272 130.792C175.224 131.304 172.707 131.987 169.72 132.84C166.819 133.693 164.045 134.803 161.4 136.168C158.755 137.533 156.493 139.155 154.616 141.032C152.739 142.909 151.8 145.085 151.8 147.56C151.8 150.291 152.909 152.552 155.128 154.344C157.347 156.136 160.248 157.032 163.832 157.032C166.648 157.032 169.123 156.435 171.256 155.24C173.389 153.96 175.352 152.339 177.144 150.376L178.552 148.84ZM204.156 155.496C204.156 153.789 204.711 152.339 205.82 151.144C207.015 149.949 208.465 149.352 210.172 149.352C211.879 149.352 213.329 149.949 214.524 151.144C215.719 152.339 216.316 153.789 216.316 155.496C216.316 157.203 215.719 158.653 214.524 159.848C213.329 160.957 211.879 161.512 210.172 161.512C208.465 161.512 207.015 160.957 205.82 159.848C204.711 158.653 204.156 157.203 204.156 155.496Z" fill="white"/>
<path d="M181.552 161V154.472L180.912 155.112C178.779 157.245 176.304 158.909 173.488 160.104C170.757 161.299 167.429 161.896 163.504 161.896C160.517 161.896 157.957 161.555 155.824 160.872C153.691 160.189 151.941 159.251 150.576 158.056C149.211 156.776 148.187 155.325 147.504 153.704C146.907 152.083 146.608 150.376 146.608 148.584C146.608 145.683 147.376 143.123 148.912 140.904C150.533 138.685 152.837 136.723 155.824 135.016C158.811 133.309 162.437 131.773 166.704 130.408C171.056 128.957 176.005 127.549 181.552 126.184C181.381 122.856 180.699 120.168 179.504 118.12C178.309 116.072 176.901 114.493 175.28 113.384C173.659 112.189 171.952 111.421 170.16 111.08C168.368 110.653 166.832 110.44 165.552 110.44C163.333 110.44 161.371 110.781 159.664 111.464C158.043 112.147 156.592 113.043 155.312 114.152C154.117 115.176 153.093 116.328 152.24 117.608C151.387 118.803 150.704 119.955 150.192 121.064H149.04V111.72C149.723 111.635 150.363 111.421 150.96 111.08C151.557 110.739 152.283 110.397 153.136 110.056C154.416 109.544 156.165 108.819 158.384 107.88C160.603 106.856 163.717 106.344 167.728 106.344C172.421 106.344 176.219 106.941 179.12 108.136C182.021 109.331 184.24 110.909 185.776 112.872C187.397 114.835 188.464 117.096 188.976 119.656C189.488 122.131 189.744 124.691 189.744 127.336V152.68C189.744 154.387 190.128 156.008 190.896 157.544C191.664 158.995 192.688 159.72 193.968 159.72V161H181.552ZM181.552 148.84V130.536L180.272 130.792C178.224 131.304 175.707 131.987 172.72 132.84C169.819 133.693 167.045 134.803 164.4 136.168C161.755 137.533 159.493 139.155 157.616 141.032C155.739 142.909 154.8 145.085 154.8 147.56C154.8 150.291 155.909 152.552 158.128 154.344C160.347 156.136 163.248 157.032 166.832 157.032C169.648 157.032 172.123 156.435 174.256 155.24C176.389 153.96 178.352 152.339 180.144 150.376L181.552 148.84Z" fill="black"/>
<path d="M185.552 161V154.472L184.912 155.112C182.779 157.245 180.304 158.909 177.488 160.104C174.757 161.299 171.429 161.896 167.504 161.896C164.517 161.896 161.957 161.555 159.824 160.872C157.691 160.189 155.941 159.251 154.576 158.056C153.211 156.776 152.187 155.325 151.504 153.704C150.907 152.083 150.608 150.376 150.608 148.584C150.608 145.683 151.376 143.123 152.912 140.904C154.533 138.685 156.837 136.723 159.824 135.016C162.811 133.309 166.437 131.773 170.704 130.408C175.056 128.957 180.005 127.549 185.552 126.184C185.381 122.856 184.699 120.168 183.504 118.12C182.309 116.072 180.901 114.493 179.28 113.384C177.659 112.189 175.952 111.421 174.16 111.08C172.368 110.653 170.832 110.44 169.552 110.44C167.333 110.44 165.371 110.781 163.664 111.464C162.043 112.147 160.592 113.043 159.312 114.152C158.117 115.176 157.093 116.328 156.24 117.608C155.387 118.803 154.704 119.955 154.192 121.064H153.04V111.72C153.723 111.635 154.363 111.421 154.96 111.08C155.557 110.739 156.283 110.397 157.136 110.056C158.416 109.544 160.165 108.819 162.384 107.88C164.603 106.856 167.717 106.344 171.728 106.344C176.421 106.344 180.219 106.941 183.12 108.136C186.021 109.331 188.24 110.909 189.776 112.872C191.397 114.835 192.464 117.096 192.976 119.656C193.488 122.131 193.744 124.691 193.744 127.336V152.68C193.744 154.387 194.128 156.008 194.896 157.544C195.664 158.995 196.688 159.72 197.968 159.72V161H185.552ZM185.552 148.84V130.536L184.272 130.792C182.224 131.304 179.707 131.987 176.72 132.84C173.819 133.693 171.045 134.803 168.4 136.168C165.755 137.533 163.493 139.155 161.616 141.032C159.739 142.909 158.8 145.085 158.8 147.56C158.8 150.291 159.909 152.552 162.128 154.344C164.347 156.136 167.248 157.032 170.832 157.032C173.648 157.032 176.123 156.435 178.256 155.24C180.389 153.96 182.352 152.339 184.144 150.376L185.552 148.84Z" fill="white"/>
<path d="M130.68 152.68C130.68 153.363 130.765 154.131 130.936 154.984C131.107 155.752 131.363 156.477 131.704 157.16C132.045 157.843 132.429 158.44 132.856 158.952C133.368 159.464 133.965 159.72 134.648 159.72V161H118.008V159.72C118.691 159.72 119.288 159.464 119.8 158.952C120.312 158.44 120.739 157.843 121.08 157.16C121.507 156.477 121.805 155.752 121.976 154.984C122.147 154.131 122.232 153.363 122.232 152.68V125.032C122.232 123.069 121.933 121.192 121.336 119.4C120.824 117.608 120.013 116.072 118.904 114.792C117.795 113.427 116.429 112.36 114.808 111.592C113.187 110.739 111.352 110.312 109.304 110.312C107 110.312 104.995 110.867 103.288 111.976C101.667 113 100.301 114.28 99.192 115.816C98.168 117.352 97.4 118.931 96.888 120.552C96.376 122.088 96.12 123.368 96.12 124.392V152.68C96.12 153.363 96.2053 154.131 96.376 154.984C96.5467 155.752 96.8027 156.477 97.144 157.16C97.5707 157.843 97.9973 158.44 98.424 158.952C98.936 159.464 99.5333 159.72 100.216 159.72V161H83.704V159.72C84.3013 159.72 84.856 159.464 85.368 158.952C85.88 158.44 86.3067 157.843 86.648 157.16C87.0747 156.477 87.3733 155.752 87.544 154.984C87.7147 154.131 87.8 153.363 87.8 152.68V124.264C87.8 122.216 87.416 120.339 86.648 118.632C85.9653 116.84 84.984 115.347 83.704 114.152C82.5093 112.957 81.1013 112.019 79.48 111.336C77.944 110.653 76.3653 110.312 74.744 110.312C72.5253 110.312 70.5627 110.739 68.856 111.592C67.2347 112.445 65.8693 113.512 64.76 114.792C63.736 116.072 62.9253 117.48 62.328 119.016C61.816 120.467 61.56 121.875 61.56 123.24V152.68C61.56 153.363 61.6453 154.131 61.816 154.984C61.9867 155.752 62.2427 156.477 62.584 157.16C63.0107 157.843 63.4373 158.44 63.864 158.952C64.376 159.464 64.9733 159.72 65.656 159.72V161H49.144V159.72C49.7413 159.72 50.296 159.464 50.808 158.952C51.32 158.44 51.7467 157.843 52.088 157.16C52.5147 156.477 52.8133 155.752 52.984 154.984C53.1547 154.131 53.24 153.363 53.24 152.68V118.504C53.24 117.821 53.1973 117.053 53.112 116.2C53.0267 115.347 52.856 114.536 52.6 113.768C52.344 113 51.9173 112.36 51.32 111.848C50.7227 111.336 49.912 111.08 48.888 111.08V109.928L61.56 105.704V112.232C62.84 110.781 64.5893 109.373 66.808 108.008C69.112 106.643 72.0987 105.96 75.768 105.96C78.1573 105.96 80.2907 106.301 82.168 106.984C84.0453 107.667 85.6667 108.563 87.032 109.672C88.4827 110.696 89.72 111.891 90.744 113.256C91.768 114.621 92.6213 115.944 93.304 117.224C93.9867 115.944 94.7973 114.664 95.736 113.384C96.6747 112.019 97.784 110.781 99.064 109.672C100.429 108.563 102.008 107.667 103.8 106.984C105.677 106.301 107.853 105.96 110.328 105.96C115.107 105.96 118.861 106.813 121.592 108.52C124.323 110.227 126.328 112.275 127.608 114.664C128.973 117.053 129.827 119.571 130.168 122.216C130.509 124.776 130.68 126.952 130.68 128.744V152.68Z" fill="black"/>
<path d="M133.68 152.68C133.68 153.363 133.765 154.131 133.936 154.984C134.107 155.752 134.363 156.477 134.704 157.16C135.045 157.843 135.429 158.44 135.856 158.952C136.368 159.464 136.965 159.72 137.648 159.72V161H121.008V159.72C121.691 159.72 122.288 159.464 122.8 158.952C123.312 158.44 123.739 157.843 124.08 157.16C124.507 156.477 124.805 155.752 124.976 154.984C125.147 154.131 125.232 153.363 125.232 152.68V125.032C125.232 123.069 124.933 121.192 124.336 119.4C123.824 117.608 123.013 116.072 121.904 114.792C120.795 113.427 119.429 112.36 117.808 111.592C116.187 110.739 114.352 110.312 112.304 110.312C110 110.312 107.995 110.867 106.288 111.976C104.667 113 103.301 114.28 102.192 115.816C101.168 117.352 100.4 118.931 99.888 120.552C99.376 122.088 99.12 123.368 99.12 124.392V152.68C99.12 153.363 99.2053 154.131 99.376 154.984C99.5467 155.752 99.8027 156.477 100.144 157.16C100.571 157.843 100.997 158.44 101.424 158.952C101.936 159.464 102.533 159.72 103.216 159.72V161H86.704V159.72C87.3013 159.72 87.856 159.464 88.368 158.952C88.88 158.44 89.3067 157.843 89.648 157.16C90.0747 156.477 90.3733 155.752 90.544 154.984C90.7147 154.131 90.8 153.363 90.8 152.68V124.264C90.8 122.216 90.416 120.339 89.648 118.632C88.9653 116.84 87.984 115.347 86.704 114.152C85.5093 112.957 84.1013 112.019 82.48 111.336C80.944 110.653 79.3653 110.312 77.744 110.312C75.5253 110.312 73.5627 110.739 71.856 111.592C70.2347 112.445 68.8693 113.512 67.76 114.792C66.736 116.072 65.9253 117.48 65.328 119.016C64.816 120.467 64.56 121.875 64.56 123.24V152.68C64.56 153.363 64.6453 154.131 64.816 154.984C64.9867 155.752 65.2427 156.477 65.584 157.16C66.0107 157.843 66.4373 158.44 66.864 158.952C67.376 159.464 67.9733 159.72 68.656 159.72V161H52.144V159.72C52.7413 159.72 53.296 159.464 53.808 158.952C54.32 158.44 54.7467 157.843 55.088 157.16C55.5147 156.477 55.8133 155.752 55.984 154.984C56.1547 154.131 56.24 153.363 56.24 152.68V118.504C56.24 117.821 56.1973 117.053 56.112 116.2C56.0267 115.347 55.856 114.536 55.6 113.768C55.344 113 54.9173 112.36 54.32 111.848C53.7227 111.336 52.912 111.08 51.888 111.08V109.928L64.56 105.704V112.232C65.84 110.781 67.5893 109.373 69.808 108.008C72.112 106.643 75.0987 105.96 78.768 105.96C81.1573 105.96 83.2907 106.301 85.168 106.984C87.0453 107.667 88.6667 108.563 90.032 109.672C91.4827 110.696 92.72 111.891 93.744 113.256C94.768 114.621 95.6213 115.944 96.304 117.224C96.9867 115.944 97.7973 114.664 98.736 113.384C99.6747 112.019 100.784 110.781 102.064 109.672C103.429 108.563 105.008 107.667 106.8 106.984C108.677 106.301 110.853 105.96 113.328 105.96C118.107 105.96 121.861 106.813 124.592 108.52C127.323 110.227 129.328 112.275 130.608 114.664C131.973 117.053 132.827 119.571 133.168 122.216C133.509 124.776 133.68 126.952 133.68 128.744V152.68Z" fill="white"/>
<path d="M204.656 155.496C204.656 153.789 205.211 152.339 206.32 151.144C207.515 149.949 208.965 149.352 210.672 149.352C212.379 149.352 213.829 149.949 215.024 151.144C216.219 152.339 216.816 153.789 216.816 155.496C216.816 157.203 216.219 158.653 215.024 159.848C213.829 160.957 212.379 161.512 210.672 161.512C208.965 161.512 207.515 160.957 206.32 159.848C205.211 158.653 204.656 157.203 204.656 155.496Z" fill="black"/>
<path d="M205.656 155.496C205.656 153.789 206.211 152.339 207.32 151.144C208.515 149.949 209.965 149.352 211.672 149.352C213.379 149.352 214.829 149.949 216.024 151.144C217.219 152.339 217.816 153.789 217.816 155.496C217.816 157.203 217.219 158.653 216.024 159.848C214.829 160.957 213.379 161.512 211.672 161.512C209.965 161.512 208.515 160.957 207.32 159.848C206.211 158.653 205.656 157.203 205.656 155.496Z" fill="white"/>
</svg>
